<?xml version="1.0" encoding="UTF-8"?>
<svg id="Layer_2" data-name="Layer 2" xmlns="http://www.w3.org/2000/svg" viewBox="0 0 162.33 20.41">
  <defs>
    <style>
      .cls-1 {
        fill: #d52128;
      }
    </style>
  </defs>
  <g id="Layer_1-2" data-name="Layer 1">
    <g>
      <path class="cls-1" d="M11.5,0c1.45,0,2.85,.2,4.2,.59,1.35,.4,2.56,1.04,3.62,1.93,1.06,.89,1.88,1.93,2.44,3.11,.57,1.18,.87,2.57,.92,4.15,.05,1.48-.15,2.9-.61,4.25-.45,1.35-1.19,2.52-2.2,3.5-1.01,.98-2.26,1.7-3.74,2.17-1.48,.47-3.05,.71-4.7,.71-1.56,0-3.07-.22-4.52-.65-1.45-.43-2.71-1.11-3.78-2.04-1.07-.92-1.85-1.99-2.34-3.19C.32,13.34,.05,12.04,0,10.65c-.05-1.53,.18-2.99,.7-4.39,.52-1.4,1.3-2.55,2.36-3.47,1.06-.91,2.31-1.61,3.75-2.08,1.44-.47,3-.71,4.68-.71Zm-.13,3.08c-1.47,0-2.75,.33-3.82,1-1.07,.67-1.86,1.58-2.38,2.74-.51,1.16-.75,2.41-.7,3.76,.04,1.25,.34,2.41,.91,3.46,.57,1.05,1.41,1.86,2.53,2.41,1.12,.55,2.32,.83,3.6,.83,.97,0,1.88-.16,2.75-.49s1.61-.83,2.23-1.5c.62-.67,1.07-1.48,1.36-2.42s.42-1.93,.39-2.95c-.03-.95-.2-1.87-.52-2.74-.32-.88-.79-1.63-1.41-2.26-.63-.63-1.37-1.1-2.23-1.4-.86-.3-1.76-.46-2.7-.46Z"/>
      <path class="cls-1" d="M25.77,20.07c.2-2.87,.31-6.17,.34-9.9,.03-3.73,0-7-.1-9.82,1.17,.02,2.15,.03,2.94,.03,.85,0,1.68-.01,2.49-.04,.81-.03,1.67-.04,2.58-.04,1.13,0,2.14,.06,3.04,.19,.9,.13,1.7,.41,2.41,.87,.71,.45,1.24,1,1.6,1.65,.36,.65,.55,1.4,.58,2.25,.02,.54-.03,1.05-.14,1.54-.11,.49-.28,.94-.52,1.37-.23,.43-.52,.8-.85,1.13-.33,.32-.66,.58-.99,.77-.33,.19-.71,.35-1.13,.48-.43,.14-1,.3-1.71,.49l1.06,1.91c.34,.61,.99,1.7,1.94,3.26l1.56,2.56c.08,.14,.33,.57,.75,1.31-1.19-.02-1.98-.03-2.36-.03-.47,0-1.3,0-2.48,.03l-1.75-3.84c-.3-.59-.67-1.28-1.09-2.08l-1.88-3.51c-.19-.33-.45-.82-.78-1.47,.66,.12,1.26,.17,1.79,.17,.84,0,1.6-.13,2.29-.4,.68-.27,1.2-.69,1.56-1.25,.35-.56,.52-1.18,.5-1.84-.01-.4-.11-.78-.28-1.13-.17-.35-.45-.64-.84-.88-.39-.24-.85-.39-1.38-.46-.53-.07-1.06-.1-1.58-.1-.29,0-.69,0-1.2,.01-.51,0-1.13,.01-1.87,.01l-.07,5.94,.08,10.83-2.27-.03c-.36,0-1.1,0-2.21,.03Z"/>
      <path class="cls-1" d="M44.71,20.07c.13-1.72,.21-3.66,.23-5.81l.11-7.08c.03-2.56,.02-4.84-.05-6.83,1.13,.02,2.09,.03,2.88,.03,.58,0,1.44,0,2.56-.03,1.16,1.9,2.77,4.37,4.81,7.43,2.04,3.05,3.69,5.58,4.95,7.58l.1-13.41c0-.32-.01-.85-.04-1.6,.92,.02,1.61,.03,2.08,.03,.19,0,.87,0,2.05-.03l-.19,5.3-.16,9.07v5.34c-1.02-.02-1.88-.03-2.59-.03-.57,0-1.48,0-2.75,.03-.52-.86-.91-1.49-1.17-1.91-.42-.64-1.32-1.95-2.69-3.93-.9-1.31-2.03-2.99-3.38-5.03-1-1.5-1.85-2.81-2.56-3.93-.03,1.56-.05,4.45-.08,8.68-.01,1.72,0,3.76,.04,6.11-.92-.02-1.58-.03-1.99-.03-.32,0-1.04,0-2.15,.03Z"/>
      <path class="cls-1" d="M68.32,20.07c.13-3.31,.2-6.71,.24-10.19,.03-3.48,.02-6.14-.04-7.98l-.06-1.55,2.45,.03c.14,0,.88,0,2.24-.03-.23,5.07-.27,11.64-.12,19.72l-2.15-.03c-.36,0-1.21,0-2.55,.03Z"/>
      <path class="cls-1" d="M81.35,20.07l.18-4.22,.12-6.28V3.38s-1.02,0-1.02,0h-.95s-.91,.03-.91,.03l-3.37,.1c.03-1.39,.04-2.44,.03-3.16,2.81,.02,5.75,.03,8.82,.03h5.25s2.81-.03,2.81-.03c-.05,1.37-.07,2.43-.04,3.16-1.77-.09-3.46-.13-5.08-.13h-1.13l-.09,2.64-.09,10.15,.03,1.7c.01,.7,.03,1.43,.06,2.19l-2.23-.03c-.24,0-1.04,0-2.39,.03Z"/>
      <path class="cls-1" d="M94.39,20.07l.17-5.19c.1-2.83,.14-5.46,.14-7.88,0-2.42-.02-4.11-.05-5.06l-.07-1.59c1.15,.02,1.96,.03,2.44,.03,.36,0,1.09,0,2.2-.03l-.18,6.52v1.5h9.97l.05-3.91c0-1.34-.01-2.22-.03-2.65l-.05-1.46,2.45,.03c.21,0,.95,0,2.2-.03l-.23,7.87-.02,5.84,.06,3.42c.03,1.41,.05,2.27,.06,2.59l-2.29-.03c-.28,0-1.09,0-2.43,.03,.17-2.73,.24-5.59,.21-8.6h-9.99l-.03,5.32,.05,3.28-2.4-.03c-.26,0-1.01,0-2.24,.03Z"/>
      <path class="cls-1" d="M128.33,0c1.45,0,2.85,.2,4.2,.59,1.35,.4,2.56,1.04,3.62,1.93,1.06,.89,1.88,1.93,2.44,3.11,.57,1.18,.87,2.57,.92,4.15,.05,1.48-.15,2.9-.61,4.25s-1.19,2.52-2.2,3.5c-1.01,.98-2.26,1.7-3.74,2.17-1.48,.47-3.05,.71-4.7,.71-1.56,0-3.07-.22-4.52-.65-1.45-.43-2.71-1.11-3.78-2.04-1.07-.92-1.85-1.99-2.34-3.19-.49-1.2-.75-2.5-.8-3.89-.05-1.53,.18-2.99,.7-4.39,.52-1.4,1.3-2.55,2.36-3.47,1.06-.91,2.31-1.61,3.75-2.08,1.44-.47,3-.71,4.68-.71Zm-.13,3.08c-1.47,0-2.75,.33-3.82,1-1.07,.67-1.86,1.58-2.38,2.74-.51,1.16-.75,2.41-.7,3.76,.04,1.25,.34,2.41,.91,3.46,.57,1.05,1.41,1.86,2.53,2.41,1.12,.55,2.32,.83,3.6,.83,.97,0,1.88-.16,2.75-.49s1.61-.83,2.23-1.5c.62-.67,1.07-1.48,1.36-2.42,.29-.94,.42-1.93,.39-2.95-.03-.95-.2-1.87-.52-2.74-.32-.88-.79-1.63-1.41-2.26-.63-.63-1.37-1.1-2.23-1.4-.86-.3-1.76-.46-2.7-.46Z"/>
      <path class="cls-1" d="M142.64,20.07c.13-1.72,.21-3.66,.23-5.81l.11-7.08c.03-2.56,.02-4.84-.05-6.83,1.13,.02,2.09,.03,2.88,.03,.58,0,1.44,0,2.56-.03,1.16,1.9,2.77,4.37,4.81,7.43,2.04,3.05,3.69,5.58,4.95,7.58l.1-13.41c0-.32-.01-.85-.04-1.6,.92,.02,1.61,.03,2.08,.03,.19,0,.87,0,2.05-.03l-.19,5.3-.16,9.07v5.34c-1.02-.02-1.88-.03-2.59-.03-.57,0-1.48,0-2.75,.03-.52-.86-.91-1.49-1.17-1.91-.42-.64-1.32-1.95-2.69-3.93-.9-1.31-2.03-2.99-3.38-5.03-1-1.5-1.85-2.81-2.56-3.93-.03,1.56-.05,4.45-.08,8.68-.01,1.72,0,3.76,.04,6.11-.92-.02-1.58-.03-1.99-.03-.32,0-1.04,0-2.15,.03Z"/>
    </g>
  </g>
</svg>